<svg id="Default" xmlns="http://www.w3.org/2000/svg" xmlns:xlink="http://www.w3.org/1999/xlink" viewBox="0 0 500 300"><defs><style>.cls-1,.cls-3,.cls-4{fill:none;}.cls-2{clip-path:url(#clip-path);}.cls-3,.cls-4{stroke:#fff;stroke-width:6px;}.cls-3{stroke-linejoin:bevel;}.cls-4{stroke-linejoin:round;}.cls-5{fill:#fff;}</style><clipPath id="clip-path"><rect class="cls-1" width="500" height="300"/></clipPath></defs><title>logo-sans-titre-blancM-Standard</title><g class="cls-2"><polyline class="cls-3" points="250.16 90 247.58 90 209.69 99.68 191.44 134.74 173.95 168.32 195.42 213.8 253.11 268.97"/><polyline class="cls-4" points="235 152.74 211.42 138 189.28 138.21 211.42 29.36 243.43 90"/><polyline class="cls-4" points="189.1 138 208.47 157.38 219 157.38 232.06 166.22 248.48 166.22 235 152.74 211.21 99.08"/><g class="cls-2"><path class="cls-4" d="M232.06,166.22s-8,6.31-13.06,5.05-10.52-13.9-10.52-13.9L198.37,170l7.16,16.84"/><polyline class="cls-4" points="173.94 168.32 221.11 195.27 248.48 166.22"/><path class="cls-3" d="M236.22,235a18.56,18.56,0,0,0,28.63,0"/><polyline class="cls-3" points="250.16 90 252.69 90 290.33 99.58 308.94 134.73 326.43 168.32 304.94 213.79 251.48 266.24"/><polyline class="cls-4" points="265.37 152.73 288.95 137.99 311.09 138.2 288.95 29.35 256.94 89.99"/><polyline class="cls-4" points="311.27 137.99 291.9 157.36 281.37 157.36 268.31 166.21 251.89 166.21 265.37 152.73 289.16 99.07"/><path class="cls-4" d="M268.31,166.21s8,6.31,13.06,5,10.53-13.9,10.53-13.9L302,170l-7.16,16.84"/><polyline class="cls-4" points="326.43 168.31 279.26 195.26 251.89 166.21"/><path class="cls-3" d="M221.48,195.46l8.63,36.86a2.92,2.92,0,0,0,3.38,2.21l1.53-.29,15.57-2.75-12.69-6.14s-4.21-4.21.42-7.16c0,0,3.84-2.7,12.27-1,0,0,7.2-2.12,11.83.83s.42,7.16.42,7.16l-11.41,6.33,14.29,2.56.61.11a3.9,3.9,0,0,0,4.52-2.94l8.41-36"/><polyline class="cls-4" points="265.21 254.66 276.37 265.82 359.95 182.24"/><polyline class="cls-4" points="283.52 259.73 294.07 270.46 342.87 220.74"/><polyline class="cls-4" points="313.77 250.83 322.39 259.44 339.11 242.72"/><path class="cls-5" d="M335.24,239.61a6.53,6.53,0,1,0,6.53-6.53,6.53,6.53,0,0,0-6.53,6.53"/><path class="cls-5" d="M355.24,178.32a8.63,8.63,0,1,0,8.63-8.62,8.63,8.63,0,0,0-8.63,8.62"/><path class="cls-5" d="M339.23,217.8a6.47,6.47,0,1,0,6.47-6.47,6.47,6.47,0,0,0-6.47,6.47"/><polyline class="cls-4" points="234.79 254.85 223.63 266.02 140.05 182.43"/><polyline class="cls-4" points="216.48 259.92 205.93 270.65 157.13 220.93"/><polyline class="cls-4" points="186.23 251.02 177.61 259.63 160.89 242.91"/><path class="cls-5" d="M164.76,239.8a6.53,6.53,0,1,1-6.53-6.53,6.53,6.53,0,0,1,6.53,6.53"/><path class="cls-5" d="M144.76,178.52a8.63,8.63,0,1,1-8.63-8.63,8.62,8.62,0,0,1,8.63,8.63"/><path class="cls-5" d="M160.77,218a6.47,6.47,0,1,1-6.47-6.46,6.47,6.47,0,0,1,6.47,6.46"/></g></g></svg>